<svg xmlns="http://www.w3.org/2000/svg" version="1.1" xmlns:xlink="http://www.w3.org/1999/xlink" xmlns:svgjs="http://svgjs.com/svgjs" width="1440" height="560" preserveAspectRatio="none" viewBox="0 0 1440 560"><g mask="url(&quot;#SvgjsMask2283&quot;)" fill="none"><rect width="1440" height="560" x="0" y="0" fill="url(#SvgjsLinearGradient2284)"></rect><path d="M1440 0L1070.34 0L1440 33.47z" fill="rgba(255, 255, 255, .1)"></path><path d="M1070.34 0L1440 33.47L1440 220.39L548.91 0z" fill="rgba(255, 255, 255, .075)"></path><path d="M548.9100000000001 0L1440 220.39L1440 395.59L418.06000000000006 0z" fill="rgba(255, 255, 255, .05)"></path><path d="M418.06000000000006 0L1440 395.59L1440 410.21999999999997L245.56000000000006 0z" fill="rgba(255, 255, 255, .025)"></path><path d="M0 560L40.18 560L0 288.33z" fill="rgba(0, 0, 0, .1)"></path><path d="M0 288.33L40.18 560L439.2 560L0 279.28z" fill="rgba(0, 0, 0, .075)"></path><path d="M0 279.28L439.2 560L742.3199999999999 560L0 205.37999999999997z" fill="rgba(0, 0, 0, .05)"></path><path d="M0 205.38L742.3199999999999 560L894.3599999999999 560L0 147.92z" fill="rgba(0, 0, 0, .025)"></path></g><defs><mask id="SvgjsMask2283"><rect width="1440" height="560" fill="#ffffff"></rect></mask><linearGradient x1="50%" y1="100%" x2="50%" y2="0%" gradientUnits="userSpaceOnUse" id="SvgjsLinearGradient2284"><stop stop-color="rgba(179, 184, 188, 1)" offset="0.12"></stop><stop stop-color="rgba(255, 255, 255, 1)" offset="1"></stop></linearGradient></defs></svg>