<svg xmlns="http://www.w3.org/2000/svg" version="1.1" xmlns:xlink="http://www.w3.org/1999/xlink" xmlns:svgjs="http://svgjs.com/svgjs" width="1440" height="3000" preserveAspectRatio="none" viewBox="0 0 1440 3000"><g mask="url(&quot;#SvgjsMask3214&quot;)" fill="none"><rect width="1440" height="3000" x="0" y="0" fill="url(#SvgjsLinearGradient3215)"></rect><path d="M1440 0L1085.3 0L1440 739z" fill="rgba(255, 255, 255, .1)"></path><path d="M1085.3 0L1440 739L1440 1509.04L979.03 0z" fill="rgba(255, 255, 255, .075)"></path><path d="M979.03 0L1440 1509.04L1440 1779.72L603.17 0z" fill="rgba(255, 255, 255, .05)"></path><path d="M603.1700000000001 0L1440 1779.72L1440 2202.31L465.56000000000006 0z" fill="rgba(255, 255, 255, .025)"></path><path d="M0 3000L621.43 3000L0 2408.42z" fill="rgba(0, 0, 0, .1)"></path><path d="M0 2408.42L621.43 3000L941.75 3000L0 1854.0700000000002z" fill="rgba(0, 0, 0, .075)"></path><path d="M0 1854.07L941.75 3000L1207.6399999999999 3000L0 949.43z" fill="rgba(0, 0, 0, .05)"></path><path d="M0 949.4299999999998L1207.6399999999999 3000L1342.1699999999998 3000L0 726.8699999999999z" fill="rgba(0, 0, 0, .025)"></path></g><defs><mask id="SvgjsMask3214"><rect width="1440" height="3000" fill="#ffffff"></rect></mask><linearGradient x1="50%" y1="0%" x2="50%" y2="100%" gradientUnits="userSpaceOnUse" id="SvgjsLinearGradient3215"><stop stop-color="rgba(140, 140, 140, 1)" offset="0.19"></stop><stop stop-color="rgba(255, 255, 255, 1)" offset="1"></stop></linearGradient></defs></svg>